<svg width="56" height="58" viewBox="0 0 56 58" fill="none" xmlns="http://www.w3.org/2000/svg">
<path d="M2.14795 38.7318L4.91959 37.5838" stroke="#656A6E" stroke-width="2.5" stroke-linecap="round" stroke-linejoin="round"/>
<path d="M2.14807 17.3015L4.91971 18.4496" stroke="#656A6E" stroke-width="2.5" stroke-linecap="round" stroke-linejoin="round"/>
<path d="M17.3014 2.14805L18.4494 4.91969" stroke="#656A6E" stroke-width="2.5" stroke-linecap="round" stroke-linejoin="round"/>
<path d="M38.7317 2.14806L37.5836 4.9197" stroke="#656A6E" stroke-width="2.5" stroke-linecap="round" stroke-linejoin="round"/>
<path d="M53.8853 17.3015L51.1136 18.4496" stroke="#656A6E" stroke-width="2.5" stroke-linecap="round" stroke-linejoin="round"/>
<path d="M53.8851 38.7318L51.1135 37.5838" stroke="#656A6E" stroke-width="2.5" stroke-linecap="round" stroke-linejoin="round"/>
<path fill-rule="evenodd" clip-rule="evenodd" d="M41.7956 19.442C42.5909 21.3268 43.0002 23.3501 43 25.3938C42.9954 27.9151 42.3671 30.3969 41.1705 32.6205C39.974 34.8441 38.2457 36.7419 36.1379 38.1467C35.5259 38.5471 35.0234 39.0922 34.6756 39.7331C34.3279 40.3741 34.1457 41.0907 34.1457 41.8187V47.5H20.8642V41.8187C20.8617 41.0887 20.6762 40.3708 20.3245 39.7296C19.9729 39.0887 19.4661 38.5447 18.8499 38.1467C16.6634 36.6865 14.8878 34.6966 13.6909 32.3652C12.4941 30.0336 11.9156 27.4375 12.0099 24.8221C12.2085 20.9026 13.8859 17.2012 16.7081 14.4549C19.5303 11.7086 23.2903 10.1189 27.2394 10.0023C29.2964 9.96723 31.34 10.3394 33.2505 11.0972C35.1613 11.855 36.9009 12.9832 38.3681 14.4159C39.8353 15.8487 41.0003 17.5572 41.7956 19.442ZM21.9999 22.5C20.0669 22.5 18.4999 24.067 18.4999 26C18.4999 27.933 20.0669 29.5 21.9999 29.5H33.9999C35.9329 29.5 37.4999 27.933 37.4999 26C37.4999 24.067 35.9329 22.5 33.9999 22.5H21.9999Z" fill="#656A6E"/>
<path d="M43 25.3938L44.25 25.3961L44.25 25.3939L43 25.3938ZM41.7956 19.442L42.9473 18.956L42.9473 18.956L41.7956 19.442ZM41.1705 32.6205L40.0697 32.0281L40.0697 32.0282L41.1705 32.6205ZM36.1379 38.1467L36.8223 39.1928L36.8312 39.1869L36.1379 38.1467ZM34.6756 39.7331L33.5769 39.137L33.5769 39.137L34.6756 39.7331ZM34.1457 47.5V48.75C34.8361 48.75 35.3957 48.1904 35.3957 47.5H34.1457ZM20.8642 47.5H19.6142C19.6142 48.1904 20.1739 48.75 20.8642 48.75V47.5ZM20.8642 41.8187L22.1142 41.8187L22.1142 41.8144L20.8642 41.8187ZM20.3245 39.7296L21.4205 39.1285L21.4204 39.1284L20.3245 39.7296ZM18.8499 38.1467L18.1557 39.1862C18.161 39.1898 18.1663 39.1933 18.1717 39.1968L18.8499 38.1467ZM13.6909 32.3652L12.5789 32.9361L12.5789 32.9361L13.6909 32.3652ZM12.0099 24.8221L10.7615 24.7588C10.7612 24.7649 10.761 24.7709 10.7608 24.777L12.0099 24.8221ZM16.7081 14.4549L15.8363 13.559L15.8363 13.559L16.7081 14.4549ZM27.2394 10.0023L27.2181 8.75244C27.2129 8.75253 27.2077 8.75265 27.2024 8.75281L27.2394 10.0023ZM33.2505 11.0972L32.7897 12.2592L32.7897 12.2592L33.2505 11.0972ZM38.3681 14.4159L39.2414 13.5216L39.2414 13.5216L38.3681 14.4159ZM22.1148 55.25C21.4244 55.25 20.8648 55.8096 20.8648 56.5C20.8648 57.1904 21.4244 57.75 22.1148 57.75V55.25ZM33.2505 57.75C33.9409 57.75 34.5005 57.1904 34.5005 56.5C34.5005 55.8096 33.9409 55.25 33.2505 55.25V57.75ZM22.1148 50.75C21.4244 50.75 20.8648 51.3096 20.8648 52C20.8648 52.6904 21.4244 53.25 22.1148 53.25V50.75ZM33.2505 53.25C33.9409 53.25 34.5005 52.6904 34.5005 52C34.5005 51.3096 33.9409 50.75 33.2505 50.75V53.25ZM44.25 25.3939C44.2502 23.1832 43.8075 20.9946 42.9473 18.956L40.6439 19.928C41.3744 21.659 41.7502 23.5171 41.75 25.3936L44.25 25.3939ZM42.2712 33.2129C43.5653 30.8081 44.245 28.1237 44.25 25.3961L41.75 25.3915C41.7457 27.7065 41.1689 29.9856 40.0697 32.0281L42.2712 33.2129ZM36.8312 39.1869C39.1088 37.6688 40.9774 35.6175 42.2713 33.2128L40.0697 32.0282C38.9707 34.0708 37.3825 35.815 35.4447 37.1066L36.8312 39.1869ZM35.7743 40.3293C36.023 39.8709 36.3828 39.4802 36.8222 39.1928L35.4536 37.1007C34.6689 37.614 34.0238 38.3135 33.5769 39.137L35.7743 40.3293ZM35.3957 41.8187C35.3957 41.2994 35.5256 40.7877 35.7743 40.3293L33.5769 39.137C33.1301 39.9605 32.8957 40.882 32.8957 41.8187H35.3957ZM35.3957 47.5V41.8187H32.8957V47.5H35.3957ZM20.8642 48.75H34.1457V46.25H20.8642V48.75ZM19.6142 41.8187V47.5H22.1142V41.8187H19.6142ZM19.2286 40.3308C19.4801 40.7894 19.6124 41.3021 19.6142 41.823L22.1142 41.8144C22.111 40.8753 21.8723 39.9522 21.4205 39.1285L19.2286 40.3308ZM18.1717 39.1968C18.6142 39.4826 18.9772 39.8725 19.2287 40.3309L21.4204 39.1284C20.9686 38.3048 20.318 37.6069 19.528 37.0967L18.1717 39.1968ZM12.5789 32.9361C13.8732 35.4573 15.7929 37.6083 18.1557 39.1862L19.5441 37.1072C17.5339 35.7647 15.9023 33.9359 14.803 31.7944L12.5789 32.9361ZM10.7608 24.777C10.6587 27.6064 11.2846 30.4145 12.5789 32.9361L14.803 31.7944C13.7036 29.6527 13.1725 27.2686 13.2591 24.8672L10.7608 24.777ZM15.8363 13.559C12.7889 16.5245 10.9762 20.5231 10.7615 24.7588L13.2583 24.8853C13.4409 21.2822 14.9829 17.8778 17.5799 15.3507L15.8363 13.559ZM27.2024 8.75281C22.9419 8.87865 18.8836 10.5937 15.8363 13.559L17.5798 15.3507C20.177 12.8234 23.6388 11.3592 27.2763 11.2517L27.2024 8.75281ZM33.7114 9.9353C31.6473 9.11659 29.4399 8.71461 27.2181 8.75244L27.2606 11.2521C29.153 11.2199 31.0327 11.5623 32.7897 12.2592L33.7114 9.9353ZM39.2414 13.5216C37.6556 11.973 35.7756 10.7539 33.7114 9.93528L32.7897 12.2592C34.547 12.9561 36.1463 13.9934 37.4948 15.3102L39.2414 13.5216ZM42.9473 18.956C42.0871 16.9176 40.8274 15.0704 39.2414 13.5216L37.4948 15.3102C38.8431 16.627 39.9134 18.1968 40.6439 19.928L42.9473 18.956ZM19.7499 26C19.7499 24.7574 20.7573 23.75 21.9999 23.75V21.25C19.3766 21.25 17.2499 23.3766 17.2499 26H19.7499ZM21.9999 28.25C20.7573 28.25 19.7499 27.2426 19.7499 26H17.2499C17.2499 28.6234 19.3766 30.75 21.9999 30.75V28.25ZM33.9999 28.25H21.9999V30.75H33.9999V28.25ZM36.2499 26C36.2499 27.2426 35.2426 28.25 33.9999 28.25V30.75C36.6233 30.75 38.7499 28.6234 38.7499 26H36.2499ZM33.9999 23.75C35.2426 23.75 36.2499 24.7574 36.2499 26H38.7499C38.7499 23.3766 36.6233 21.25 33.9999 21.25V23.75ZM21.9999 23.75H33.9999V21.25H21.9999V23.75ZM22.1148 57.75H33.2505V55.25H22.1148V57.75ZM22.1148 53.25H33.2505V50.75H22.1148V53.25Z" fill="#656A6E"/>
</svg>
