<svg width="39" height="46" viewBox="0 0 39 46" fill="none" xmlns="http://www.w3.org/2000/svg">
<path d="M37 26.6163C37 36.217 29.165 44 19.5 44C9.83502 44 2 36.217 2 26.6163C2 17.0155 9.83502 9.23256 19.5 9.23256C29.165 9.23256 37 17.0155 37 26.6163Z" fill="#656A6E"/>
<path d="M19.5 9.23256C9.83502 9.23256 2 17.0155 2 26.6163C2 36.217 9.83502 44 19.5 44C29.165 44 37 36.217 37 26.6163C37 17.0155 29.165 9.23256 19.5 9.23256ZM19.5 9.23256V2" stroke="#656A6E" stroke-width="2.5" stroke-linecap="round"/>
<path d="M22.0743 14.9483C22.2444 15.205 22.4132 15.4865 22.5789 15.7932H22.0743V14.9483ZM6.43515 23.899C6.62879 22.887 6.93353 21.9152 7.3348 20.9951H9.41545C9.26479 21.9335 9.15321 22.9037 9.08186 23.899H6.43515ZM7.33475 32.0049C6.93351 31.0848 6.62879 30.1129 6.43515 29.101H9.08186C9.1532 30.0963 9.26478 31.0666 9.41542 32.0049H7.33475ZM16.9258 37.2068V38.0517C16.7557 37.795 16.5868 37.5135 16.4211 37.2068H16.9258ZM16.9258 23.899H14.2445C14.3331 22.8755 14.4725 21.9058 14.6531 20.9951H16.9258V23.899ZM16.9258 15.7932H16.4211C16.5868 15.4865 16.7557 15.205 16.9258 14.9483V15.7932ZM22.5789 37.2068C22.4132 37.5135 22.2444 37.795 22.0743 38.0517V37.2068H22.5789ZM24.7556 29.101C24.667 30.1245 24.5276 31.0942 24.3469 32.0049H22.0743V29.101H24.7556ZM22.0743 23.899V20.9951H24.347C24.5276 21.9057 24.667 22.8755 24.7556 23.899H22.0743ZM31.6652 32.0049H29.5846C29.7352 31.0665 29.8468 30.0963 29.9181 29.101H32.5648C32.3712 30.1129 32.0665 31.0848 31.6652 32.0049Z" stroke="#F5F5F5" stroke-width="2.5"/>
</svg>
