<svg width="75" height="75" viewBox="0 0 75 75" fill="none" xmlns="http://www.w3.org/2000/svg">
<path d="M22.8497 45.452C24.9843 55.1537 33.7707 57.0847 37.5769 41.3839C38.5914 41.3839 39.5176 41.0063 40.2227 40.3839L43.5235 50.9362C43.865 51.7872 44.7494 52.3082 45.645 52.1112C55.3466 49.9765 57.2777 41.1902 41.5769 37.3839C41.5769 36.3695 41.1993 35.4432 40.5769 34.7381L51.1292 31.4373C51.9802 31.0958 52.5012 30.2114 52.3042 29.3158C50.1695 19.6142 41.3832 17.6831 37.5769 33.3839C36.5625 33.3839 35.6362 33.7615 34.9311 34.3839L31.6303 23.8316C31.2888 22.9806 30.4044 22.4596 29.5088 22.6567C19.8072 24.7913 17.8761 33.5777 33.5769 37.3839C33.5769 38.3984 33.9545 39.3246 34.5769 40.0298L24.0247 43.3306C23.1736 43.672 22.6526 44.5565 22.8497 45.452Z" stroke="#656A6E" stroke-width="2.5" stroke-linejoin="round"/>
<path fill-rule="evenodd" clip-rule="evenodd" d="M40.0857 10.1301C35.2061 9.67953 30.5177 10.5371 26.3562 12.4115C24.5938 13.2053 22.5215 12.4201 21.7276 10.6576C20.9338 8.89516 21.719 6.82287 23.4815 6.02903C28.7164 3.67118 34.6147 2.59513 40.7294 3.1598C59.6269 4.90491 73.5316 21.639 71.7865 40.5365C71.2218 46.6512 69.0838 52.2527 65.8071 56.9673C64.704 58.5545 62.5229 58.947 60.9356 57.8438C59.3483 56.7406 58.9559 54.5596 60.0591 52.9723C62.6638 49.2245 64.3655 44.7724 64.8161 39.8928C66.2057 24.8449 55.1336 11.5198 40.0857 10.1301ZM14.2036 16.9095C15.7909 18.0127 16.1834 20.1937 15.0802 21.781C12.4754 25.5288 10.7737 29.9809 10.3231 34.8605C8.9335 49.9084 20.0057 63.2336 35.0535 64.6232C39.9332 65.0738 44.6216 64.2162 48.783 62.3418C50.5455 61.548 52.6178 62.3332 53.4116 64.0957C54.2054 65.8581 53.4202 67.9304 51.6577 68.7243C46.4229 71.0821 40.5245 72.1582 34.4098 71.5935C15.5124 69.8484 1.60766 53.1143 3.35277 34.2169C3.91744 28.1021 6.05546 22.5006 9.33211 17.7861C10.4353 16.1988 12.6163 15.8063 14.2036 16.9095Z" stroke="#656A6E" stroke-width="1.5" stroke-linecap="round"/>
</svg>
