<svg width="75" height="75" viewBox="0 0 75 75" fill="none" xmlns="http://www.w3.org/2000/svg">
<path d="M22.6567 45.452C24.7913 55.1537 33.5777 57.0847 37.3839 41.3839C38.3984 41.3839 39.3246 41.0063 40.0297 40.3839L43.3305 50.9362C43.672 51.7872 44.5564 52.3082 45.452 52.1112C55.1536 49.9765 57.0847 41.1902 41.3839 37.3839C41.3839 36.3695 41.0063 35.4432 40.3839 34.7381L50.9362 31.4373C51.7872 31.0958 52.3082 30.2114 52.1112 29.3158C49.9765 19.6142 41.1902 17.6831 37.3839 33.3839C36.3695 33.3839 35.4432 33.7615 34.7381 34.3839L31.4373 23.8316C31.0958 22.9806 30.2114 22.4596 29.3158 22.6567C19.6142 24.7913 17.6831 33.5777 33.3839 37.3839C33.3839 38.3984 33.7616 39.3246 34.3839 40.0298L23.8317 43.3306C22.9806 43.672 22.4596 44.5565 22.6567 45.452Z" stroke="#656A6E" stroke-width="2.5" stroke-linejoin="round"/>
<path d="M14.8872 21.781C15.9904 20.1937 15.5979 18.0127 14.0106 16.9095C12.4233 15.8063 10.2423 16.1988 9.13911 17.7861C5.86246 22.5006 3.72445 28.1021 3.15978 34.2169C1.41467 53.1143 15.3194 69.8484 34.2168 71.5935C40.3315 72.1582 46.2299 71.0821 51.4647 68.7243C53.2272 67.9304 54.0125 65.8581 53.2186 64.0957C52.4248 62.3332 50.3525 61.548 48.59 62.3418C44.4286 64.2162 39.7402 65.0738 34.8605 64.6232C19.8127 63.2336 8.7405 49.9084 10.1301 34.8605C10.5807 29.9809 12.2824 25.5288 14.8872 21.781Z" fill="#656A6E" stroke="#656A6E" stroke-width="1.5" stroke-linecap="round"/>
</svg>
