<svg width="75" height="75" viewBox="0 0 75 75" fill="none" xmlns="http://www.w3.org/2000/svg">
<path fill-rule="evenodd" clip-rule="evenodd" d="M39.8927 10.1301C35.0131 9.67953 30.3247 10.5371 26.1632 12.4115C24.4008 13.2053 22.3285 12.4201 21.5346 10.6576C20.7408 8.89516 21.526 6.82287 23.2885 6.02903C28.5234 3.67118 34.4217 2.59513 40.5364 3.1598C59.4339 4.90491 73.3386 21.639 71.5935 40.5365C71.0288 46.6512 68.8908 52.2527 65.6141 56.9673C64.511 58.5545 62.3299 58.947 60.7426 57.8438C59.1553 56.7406 58.7629 54.5596 59.8661 52.9723C62.4708 49.2245 64.1725 44.7724 64.6231 39.8928C66.0128 24.8449 54.9406 11.5198 39.8927 10.1301ZM14.0106 16.9095C15.5979 18.0127 15.9904 20.1937 14.8872 21.781C12.2824 25.5288 10.5807 29.9809 10.1301 34.8605C8.7405 49.9084 19.8127 63.2336 34.8605 64.6232C39.7402 65.0738 44.4286 64.2162 48.59 62.3418C50.3525 61.548 52.4248 62.3332 53.2186 64.0957C54.0125 65.8581 53.2272 67.9304 51.4647 68.7243C46.2299 71.0821 40.3315 72.1582 34.2168 71.5935C15.3194 69.8484 1.41467 53.1143 3.15978 34.2169C3.72445 28.1021 5.86246 22.5006 9.13911 17.7861C10.2423 16.1988 12.4233 15.8063 14.0106 16.9095Z" fill="#656A6E" stroke="#656A6E" stroke-width="1.5" stroke-linecap="round"/>
<path d="M40.9808 24H32.3525C27.346 24 26.9598 28.394 29.6628 30.786L43.6705 43.214C46.3735 45.606 45.9873 50 40.9808 50H32.3525C27.346 50 26.9598 45.606 29.6628 43.214L43.6705 30.786C46.3735 28.394 45.9873 24 40.9808 24Z" stroke="#656A6E" stroke-width="2.5" stroke-linecap="round" stroke-linejoin="round"/>
</svg>
