<svg width="45" height="61" viewBox="0 0 45 61" fill="none" xmlns="http://www.w3.org/2000/svg">
<path d="M2.14807 38.7318L7.69135 36.4357" stroke="#656A6E" stroke-width="2.5" stroke-linecap="round" stroke-linejoin="round"/>
<path d="M2.14819 17.3015L7.69147 19.5976" stroke="#656A6E" stroke-width="2.5" stroke-linecap="round" stroke-linejoin="round"/>
<path d="M17.3015 2.14804L19.5976 7.69132" stroke="#656A6E" stroke-width="2.5" stroke-linecap="round" stroke-linejoin="round"/>
<path d="M43.0956 27.3938C43.0958 25.3501 42.6865 23.3268 41.8912 21.442C41.0958 19.5572 39.9308 17.8487 38.4637 16.4159C36.9965 14.9832 35.2569 13.855 33.3461 13.0972C31.4356 12.3394 29.392 11.9672 27.3349 12.0023L27.6006 49.5H34.2413V43.8187C34.2413 43.0907 34.4235 42.3741 34.7712 41.7332C35.119 41.0922 35.6214 40.5471 36.2335 40.1467C38.3413 38.7419 40.0696 36.8441 41.2661 34.6205C42.4627 32.3969 43.0909 29.9151 43.0956 27.3938Z" fill="#656A6E"/>
<path d="M27.3349 12.0023C29.392 11.9672 31.4356 12.3394 33.3461 13.0972C35.2569 13.855 36.9965 14.9832 38.4637 16.4159C39.9308 17.8487 41.0958 19.5572 41.8912 21.442C42.6865 23.3268 43.0958 25.3501 43.0956 27.3938C43.0909 29.9151 42.4627 32.3969 41.2661 34.6205C40.0696 36.8441 38.3413 38.7419 36.2335 40.1467C35.6214 40.5471 35.119 41.0922 34.7712 41.7332C34.4235 42.3741 34.2413 43.0907 34.2413 43.8187V49.5H27.6006M27.3349 12.0023C23.3859 12.1189 19.6259 13.7086 16.8037 16.4549C13.9815 19.2012 12.3041 22.9026 12.1055 26.8221C12.0111 29.4375 12.5897 32.0336 13.7865 34.3652C14.9834 36.6966 16.7589 38.6865 18.9454 40.1467C19.5617 40.5447 20.0685 41.0887 20.4201 41.7296C20.7718 42.3708 20.9573 43.0887 20.9598 43.8187V49.5H27.6006M27.3349 12.0023L27.6006 49.5M22 59H33.1358M22 54.5H33.1358" stroke="#656A6E" stroke-width="2.5" stroke-linecap="round" stroke-linejoin="round"/>
</svg>
