<svg width="35" height="50" viewBox="0 0 35 50" fill="none" xmlns="http://www.w3.org/2000/svg">
<path d="M33.0001 17.3938C33.0003 15.3501 32.5911 13.3268 31.7957 11.442C31.0004 9.55721 29.8354 7.84869 28.3682 6.41594C26.9011 4.98321 25.1614 3.85503 23.2507 3.09724C21.3401 2.33942 19.2966 1.96723 17.2395 2.00226C13.2905 2.11891 9.53044 3.70857 6.70822 6.45485C3.88603 9.20116 2.20865 12.9026 2.01007 16.8221C1.91568 19.4375 2.49422 22.0336 3.69105 24.3652C4.88789 26.6966 6.66349 28.6865 8.84999 30.1467C9.46623 30.5447 9.973 31.0887 10.3247 31.7296C10.6763 32.3708 10.8618 33.0887 10.8644 33.8187V39.5H24.1458V33.8187C24.1458 33.0907 24.328 32.3741 24.6758 31.7332C25.0235 31.0922 25.526 30.5471 26.138 30.1467C28.2458 28.7419 29.9742 26.8441 31.1706 24.6205C32.3673 22.3969 32.9955 19.9151 33.0001 17.3938Z" fill="#656A6E"/>
<path d="M12.1149 48.5H23.2507M12.1149 44H23.2507M33.0001 17.3938C33.0003 15.3501 32.5911 13.3268 31.7957 11.442C31.0004 9.55721 29.8354 7.84869 28.3682 6.41594C26.9011 4.98321 25.1614 3.85503 23.2507 3.09724C21.3401 2.33942 19.2966 1.96723 17.2395 2.00226C13.2905 2.11891 9.53044 3.70857 6.70822 6.45485C3.88603 9.20116 2.20865 12.9026 2.01007 16.8221C1.91568 19.4375 2.49422 22.0336 3.69105 24.3652C4.88789 26.6966 6.66349 28.6865 8.84999 30.1467C9.46623 30.5447 9.973 31.0887 10.3247 31.7296C10.6763 32.3708 10.8618 33.0887 10.8644 33.8187V39.5H24.1458V33.8187C24.1458 33.0907 24.328 32.3741 24.6758 31.7332C25.0235 31.0922 25.526 30.5471 26.138 30.1467C28.2458 28.7419 29.9742 26.8441 31.1706 24.6205C32.3673 22.3969 32.9955 19.9151 33.0001 17.3938Z" stroke="#656A6E" stroke-width="2.5" stroke-linecap="round" stroke-linejoin="round"/>
</svg>
