<svg width="56" height="60" viewBox="0 0 56 60" fill="none" xmlns="http://www.w3.org/2000/svg">
<path d="M23.1148 58.5H34.2505M23.1148 54H34.2505M44 27.3938C44.0002 25.3501 43.5909 23.3268 42.7956 21.442C42.0003 19.5572 40.8353 17.8487 39.3681 16.4159C37.9009 14.9832 36.1613 13.855 34.2505 13.0972C32.34 12.3394 30.2964 11.9672 28.2394 12.0023C24.2903 12.1189 20.5303 13.7086 17.7081 16.4549C14.8859 19.2012 13.2085 22.9026 13.0099 26.8221C12.9156 29.4375 13.4941 32.0336 14.6909 34.3652C15.8878 36.6966 17.6634 38.6865 19.8499 40.1467C20.4661 40.5447 20.9729 41.0887 21.3245 41.7296C21.6762 42.3708 21.8617 43.0887 21.8642 43.8187V49.5H35.1457V43.8187C35.1457 43.0907 35.3279 42.3741 35.6756 41.7332C36.0234 41.0922 36.5259 40.5471 37.1379 40.1467C39.2457 38.7419 40.974 36.8441 42.1705 34.6205C43.3671 32.3969 43.9953 29.9151 44 27.3938Z" stroke="#656A6E" stroke-width="2.5" stroke-linecap="round" stroke-linejoin="round"/>
<path d="M2.14795 38.7318L7.69123 36.4357" stroke="#656A6E" stroke-width="2.5" stroke-linecap="round" stroke-linejoin="round"/>
<path d="M2.14807 17.3015L7.69135 19.5976" stroke="#656A6E" stroke-width="2.5" stroke-linecap="round" stroke-linejoin="round"/>
<path d="M17.3014 2.14804L19.5975 7.69132" stroke="#656A6E" stroke-width="2.5" stroke-linecap="round" stroke-linejoin="round"/>
<path d="M38.7317 2.14806L36.4356 7.69133" stroke="#656A6E" stroke-width="2.5" stroke-linecap="round" stroke-linejoin="round"/>
<path d="M53.8853 17.3015L48.342 19.5976" stroke="#656A6E" stroke-width="2.5" stroke-linecap="round" stroke-linejoin="round"/>
<path d="M53.8851 38.7318L48.3419 36.4357" stroke="#656A6E" stroke-width="2.5" stroke-linecap="round" stroke-linejoin="round"/>
</svg>
